<svg width="64" height="64" viewBox="0 0 64 64" fill="none" xmlns="http://www.w3.org/2000/svg">
<path d="M29.0933 5.51201C30.9774 4.86693 33.0226 4.86693 34.9067 5.51201C37.5493 6.41468 42.4373 8.18268 49.5693 11.1533C54.7027 13.2933 58.344 14.9493 60.796 16.124C62.3947 16.8893 63.312 18.3973 63.312 20C63.312 21.6027 62.3947 23.1107 60.7947 23.876C58.344 25.0493 54.7027 26.7067 49.5693 28.8467C42.4373 31.8173 37.5493 33.5853 34.9067 34.4867C33.0226 35.1318 30.9774 35.1318 29.0933 34.4867C26.4507 33.5853 21.5627 31.8173 14.4307 28.8467C12.5009 28.0438 10.5795 27.2211 8.66667 26.3787L8.66667 47.6747C9.99924 48.1483 11.1218 49.0773 11.8364 50.2977C12.5509 51.5182 12.8117 52.9517 12.5725 54.3456C12.3334 55.7395 11.6098 57.0042 10.5294 57.9167C9.44888 58.8292 8.08091 59.3309 6.66667 59.3333C5.25038 59.3346 3.87933 58.8347 2.79611 57.9223C1.7129 57.0099 0.987369 55.7437 0.747909 54.3478C0.508449 52.9519 0.770497 51.5163 1.48768 50.295C2.20487 49.0738 3.33095 48.1456 4.66667 47.6747V24.568C4.13867 24.3218 3.65156 24.0911 3.20533 23.876C1.60533 23.1107 0.688 21.6027 0.688 20C0.688 18.3973 1.60533 16.8893 3.20533 16.124C5.656 14.9493 9.29733 13.2933 14.432 11.1533C21.5627 8.18268 26.4507 6.41468 29.0947 5.51334" fill="#ffffff"/>
<path d="M27.8027 37.5974C22.6929 35.8511 17.6446 33.93 12.6667 31.8374V32.2227C12.6667 36.4121 12.8813 39.0947 13.1053 40.7561C13.3707 42.7241 14.5173 44.4534 16.328 45.4014C18.9507 46.7734 24.0227 48.6667 32 48.6667C39.9773 48.6667 45.0493 46.7734 47.672 45.4001C49.4827 44.4534 50.6307 42.7241 50.8947 40.7561C51.1187 39.0947 51.3333 36.4121 51.3333 32.2227V31.8361C46.3554 33.9287 41.3071 35.8498 36.1973 37.5961C33.4764 38.5264 30.5236 38.5277 27.8027 37.5974Z" fill="#ffffff"/>
<path d="M34.7529 13L20 18.8866M43 17.1134L28.2471 23M28.2304 15.6974L37.1729 19.3004" stroke="#030712" stroke-width="2" stroke-linecap="round"/>
</svg>
